<svg width="32" height="32" viewBox="0 0 32 32" fill="none" xmlns="http://www.w3.org/2000/svg">
  <!-- Modern gradient background -->
  <defs>
    <linearGradient id="bg" x1="0%" y1="0%" x2="100%" y2="100%">
      <stop offset="0%" style="stop-color:#3B82F6;stop-opacity:1" />
      <stop offset="100%" style="stop-color:#1E40AF;stop-opacity:1" />
    </linearGradient>
  </defs>
  
  <!-- Rounded square background -->
  <rect x="2" y="2" width="28" height="28" rx="6" fill="url(#bg)"/>
  
  <!-- Task list container -->
  <rect x="7" y="8" width="18" height="16" rx="2" fill="white" fill-opacity="0.15"/>
  
  <!-- Task items with checkboxes -->
  <rect x="9" y="10" width="2" height="2" rx="0.5" fill="white"/>
  <rect x="12" y="10.25" width="8" height="1.5" rx="0.75" fill="white"/>
  
  <rect x="9" y="13" width="2" height="2" rx="0.5" fill="white"/>
  <rect x="12" y="13.25" width="10" height="1.5" rx="0.75" fill="white"/>
  
  <rect x="9" y="16" width="2" height="2" rx="0.5" fill="white"/>
  <rect x="12" y="16.25" width="6" height="1.5" rx="0.75" fill="white"/>
  
  <rect x="9" y="19" width="2" height="2" rx="0.5" fill="white"/>
  <rect x="12" y="19.25" width="9" height="1.5" rx="0.75" fill="white"/>
  
  <!-- Checkmark on first item -->
  <path d="M9.3 11L10 11.7L11.7 10" stroke="#3B82F6" stroke-width="1.2" stroke-linecap="round" stroke-linejoin="round"/>
</svg>